<mxfile host="app.diagrams.net" agent="Mozilla/5.0 (Windows NT 10.0; Win64; x64) AppleWebKit/537.36 (KHTML, like Gecko) Chrome/138.0.0.0 Safari/537.36" version="28.1.0">
  <diagram id="Ht1M8jgEwFfnCIfOTk4-" name="Page-1">
    <mxGraphModel dx="2066" dy="1102" grid="1" gridSize="10" guides="1" tooltips="1" connect="1" arrows="1" fold="1" page="1" pageScale="1" pageWidth="1169" pageHeight="827" math="0" shadow="0">
      <root>
        <mxCell id="0" />
        <mxCell id="1" parent="0" />
        <mxCell id="-QjtrjUzRDEMRZ5MF8oH-47" value="WM Event Manager Infrastructure" style="text;html=1;resizable=0;points=[];autosize=1;align=left;verticalAlign=top;spacingTop=-4;fontSize=30;fontStyle=1" parent="1" vertex="1">
          <mxGeometry x="56.5" y="64.5" width="470" height="40" as="geometry" />
        </mxCell>
        <mxCell id="-QjtrjUzRDEMRZ5MF8oH-48" value="CWBI Implementation" style="text;html=1;resizable=0;points=[];autosize=1;align=left;verticalAlign=top;spacingTop=-4;fontSize=16" parent="1" vertex="1">
          <mxGeometry x="56.5" y="114.5" width="180" height="30" as="geometry" />
        </mxCell>
        <mxCell id="SCVMTBWpLvtzJIhz15lM-1" value="" style="line;strokeWidth=2;html=1;fontSize=14;" parent="1" vertex="1">
          <mxGeometry x="52.5" y="139.5" width="1060" height="10" as="geometry" />
        </mxCell>
        <mxCell id="k1J5Uft5zTIaOylSxwT3-1" value="" style="rounded=0;whiteSpace=wrap;html=1;fillColor=#EAEDED;fontSize=22;fontColor=#FFFFFF;strokeColor=none;labelBackgroundColor=none;" parent="1" vertex="1">
          <mxGeometry x="1390" y="310" width="539" height="590" as="geometry" />
        </mxCell>
        <mxCell id="k1J5Uft5zTIaOylSxwT3-2" value="1" style="rounded=1;whiteSpace=wrap;html=1;fillColor=#007CBD;strokeColor=none;fontColor=#FFFFFF;fontStyle=1;fontSize=22;labelBackgroundColor=none;" parent="1" vertex="1">
          <mxGeometry x="1408.5" y="322.5" width="40" height="38" as="geometry" />
        </mxCell>
        <mxCell id="k1J5Uft5zTIaOylSxwT3-3" value="2" style="rounded=1;whiteSpace=wrap;html=1;fillColor=#007CBD;strokeColor=none;fontColor=#FFFFFF;fontStyle=1;fontSize=22;labelBackgroundColor=none;" parent="1" vertex="1">
          <mxGeometry x="1406.5" y="409.5" width="40" height="38" as="geometry" />
        </mxCell>
        <mxCell id="k1J5Uft5zTIaOylSxwT3-4" value="3" style="rounded=1;whiteSpace=wrap;html=1;fillColor=#007CBD;strokeColor=none;fontColor=#FFFFFF;fontStyle=1;fontSize=22;labelBackgroundColor=none;" parent="1" vertex="1">
          <mxGeometry x="1406.5" y="484" width="40" height="38" as="geometry" />
        </mxCell>
        <mxCell id="k1J5Uft5zTIaOylSxwT3-5" value="4" style="rounded=1;whiteSpace=wrap;html=1;fillColor=#007CBD;strokeColor=none;fontColor=#FFFFFF;fontStyle=1;fontSize=22;labelBackgroundColor=none;" parent="1" vertex="1">
          <mxGeometry x="1407" y="599.5" width="40" height="38" as="geometry" />
        </mxCell>
        <mxCell id="k1J5Uft5zTIaOylSxwT3-6" value="5" style="rounded=1;whiteSpace=wrap;html=1;fillColor=#007CBD;strokeColor=none;fontColor=#FFFFFF;fontStyle=1;fontSize=22;labelBackgroundColor=none;" parent="1" vertex="1">
          <mxGeometry x="1406.5" y="680" width="40" height="38" as="geometry" />
        </mxCell>
        <mxCell id="k1J5Uft5zTIaOylSxwT3-7" value="6" style="rounded=1;whiteSpace=wrap;html=1;fillColor=#007CBD;strokeColor=none;fontColor=#FFFFFF;fontStyle=1;fontSize=22;labelBackgroundColor=none;" parent="1" vertex="1">
          <mxGeometry x="1406.5" y="740" width="40" height="38" as="geometry" />
        </mxCell>
        <mxCell id="k1J5Uft5zTIaOylSxwT3-11" value="API providing endpoints to submit jobs and retrieve job history. ECS running docker container with gunicorn -&amp;gt; uvicorn -&amp;gt; FastAPI.&amp;nbsp; Possibly behind ALB, but probably not enough traffic to be needed.&amp;nbsp; ECS container would be &quot;always-on&quot; but likely on standby much of the time.&amp;nbsp;&amp;nbsp;" style="text;html=1;align=left;verticalAlign=top;spacingTop=-4;fontSize=14;labelBackgroundColor=none;whiteSpace=wrap;" parent="1" vertex="1">
          <mxGeometry x="1460" y="322" width="449" height="78" as="geometry" />
        </mxCell>
        <mxCell id="k1J5Uft5zTIaOylSxwT3-12" value="&lt;span&gt;Serverless alternative: API Gateway exposing endpoints for a Lambda function running Mangum -&amp;gt; FastAPI.&amp;nbsp; Potential cost savings due to only running as-needed.&lt;/span&gt;" style="text;html=1;align=left;verticalAlign=top;spacingTop=-4;fontSize=14;labelBackgroundColor=none;whiteSpace=wrap;" parent="1" vertex="1">
          <mxGeometry x="1458.5" y="410" width="450" height="55" as="geometry" />
        </mxCell>
        <mxCell id="k1J5Uft5zTIaOylSxwT3-13" value="Small database to store job details and status, e.g. script name, user, office, creation time, current status, etc.&amp;nbsp; RDS w/ PostgreSQL feels somewhat like overkill, although we probably have the most in-house knowledge with this.&amp;nbsp; DynamoDB would be a cheaper, lower-maintenance option (and provides options such as DynamoDB Streams)." style="text;html=1;align=left;verticalAlign=top;spacingTop=-4;fontSize=14;labelBackgroundColor=none;whiteSpace=wrap;" parent="1" vertex="1">
          <mxGeometry x="1458.5" y="482.5" width="450" height="117" as="geometry" />
        </mxCell>
        <mxCell id="k1J5Uft5zTIaOylSxwT3-14" value="Optional SQS queue system for submitted jobs.&amp;nbsp; Queue could be polled by a small ECS &quot;worker&quot; container for submission to the actual job-running system (AWS Batch, ECS RunTask).&amp;nbsp; Alternatively, SQS polled by a similar Lambda function (which is managed by AWS automatically)." style="text;html=1;align=left;verticalAlign=top;spacingTop=-4;fontSize=14;labelBackgroundColor=none;whiteSpace=wrap;" parent="1" vertex="1">
          <mxGeometry x="1459" y="600" width="450" height="80" as="geometry" />
        </mxCell>
        <mxCell id="k1J5Uft5zTIaOylSxwT3-15" value="Could feasibly run job straight from Events API, but this wouldn&#39;t scale as well under load.&amp;nbsp; SQS is ideal." style="text;html=1;align=left;verticalAlign=top;spacingTop=-4;fontSize=14;labelBackgroundColor=none;whiteSpace=wrap;" parent="1" vertex="1">
          <mxGeometry x="1458" y="680.5" width="449" height="49.5" as="geometry" />
        </mxCell>
        <mxCell id="k1J5Uft5zTIaOylSxwT3-16" value="&lt;span&gt;Logs could potentially be stored in and retrieved from an S3 bucket, but there might be a viable way to piggyback off of the Grafana / CloudWatch logs system that Adam has already set up for the cron jobs system?&lt;/span&gt;" style="text;html=1;align=left;verticalAlign=top;spacingTop=-4;fontSize=14;labelBackgroundColor=none;whiteSpace=wrap;" parent="1" vertex="1">
          <mxGeometry x="1457" y="741.5" width="450" height="78.5" as="geometry" />
        </mxCell>
        <mxCell id="QxsduxK5l0AQasDu5CAV-78" style="edgeStyle=orthogonalEdgeStyle;rounded=0;orthogonalLoop=1;jettySize=auto;html=1;startArrow=classic;startFill=1;" edge="1" parent="1" source="QxsduxK5l0AQasDu5CAV-3" target="QxsduxK5l0AQasDu5CAV-22">
          <mxGeometry relative="1" as="geometry" />
        </mxCell>
        <mxCell id="QxsduxK5l0AQasDu5CAV-3" value="" style="shape=mxgraph.mockup.containers.marginRect;rectMarginTop=10;strokeColor=#666666;strokeWidth=1;dashed=0;rounded=1;arcSize=5;recursiveResize=0;html=1;whiteSpace=wrap;" vertex="1" parent="1">
          <mxGeometry x="344.5" y="350" width="350" height="340" as="geometry" />
        </mxCell>
        <mxCell id="QxsduxK5l0AQasDu5CAV-4" value="Events/Jobs API" style="shape=rect;strokeColor=none;fillColor=#008cff;strokeWidth=1;dashed=0;rounded=1;arcSize=20;fontColor=#ffffff;fontSize=17;spacing=2;spacingTop=-2;align=left;autosize=1;spacingLeft=4;resizeWidth=0;resizeHeight=0;perimeter=none;html=1;whiteSpace=wrap;" vertex="1" parent="QxsduxK5l0AQasDu5CAV-3">
          <mxGeometry x="5" width="150" height="30" as="geometry" />
        </mxCell>
        <mxCell id="QxsduxK5l0AQasDu5CAV-5" value="ECS" style="sketch=0;points=[[0,0,0],[0.25,0,0],[0.5,0,0],[0.75,0,0],[1,0,0],[0,1,0],[0.25,1,0],[0.5,1,0],[0.75,1,0],[1,1,0],[0,0.25,0],[0,0.5,0],[0,0.75,0],[1,0.25,0],[1,0.5,0],[1,0.75,0]];outlineConnect=0;fontColor=#232F3E;fillColor=#ED7100;strokeColor=#ffffff;dashed=0;verticalLabelPosition=bottom;verticalAlign=top;align=center;html=1;fontSize=12;fontStyle=0;aspect=fixed;shape=mxgraph.aws4.resourceIcon;resIcon=mxgraph.aws4.ecs;" vertex="1" parent="QxsduxK5l0AQasDu5CAV-3">
          <mxGeometry x="41" y="120" width="78" height="78" as="geometry" />
        </mxCell>
        <mxCell id="QxsduxK5l0AQasDu5CAV-10" style="edgeStyle=orthogonalEdgeStyle;rounded=0;orthogonalLoop=1;jettySize=auto;html=1;" edge="1" parent="QxsduxK5l0AQasDu5CAV-3" source="QxsduxK5l0AQasDu5CAV-8" target="QxsduxK5l0AQasDu5CAV-9">
          <mxGeometry relative="1" as="geometry" />
        </mxCell>
        <mxCell id="QxsduxK5l0AQasDu5CAV-8" value="API Gateway&lt;div&gt;&lt;br&gt;&lt;/div&gt;" style="sketch=0;points=[[0,0,0],[0.25,0,0],[0.5,0,0],[0.75,0,0],[1,0,0],[0,1,0],[0.25,1,0],[0.5,1,0],[0.75,1,0],[1,1,0],[0,0.25,0],[0,0.5,0],[0,0.75,0],[1,0.25,0],[1,0.5,0],[1,0.75,0]];outlineConnect=0;fontColor=#232F3E;fillColor=#8C4FFF;strokeColor=#ffffff;dashed=0;verticalLabelPosition=top;verticalAlign=bottom;align=center;html=1;fontSize=12;fontStyle=0;aspect=fixed;shape=mxgraph.aws4.resourceIcon;resIcon=mxgraph.aws4.api_gateway;labelPosition=center;" vertex="1" parent="QxsduxK5l0AQasDu5CAV-3">
          <mxGeometry x="220" y="67" width="78" height="78" as="geometry" />
        </mxCell>
        <mxCell id="QxsduxK5l0AQasDu5CAV-9" value="Lambda" style="sketch=0;points=[[0,0,0],[0.25,0,0],[0.5,0,0],[0.75,0,0],[1,0,0],[0,1,0],[0.25,1,0],[0.5,1,0],[0.75,1,0],[1,1,0],[0,0.25,0],[0,0.5,0],[0,0.75,0],[1,0.25,0],[1,0.5,0],[1,0.75,0]];outlineConnect=0;fontColor=#232F3E;fillColor=#ED7100;strokeColor=#ffffff;dashed=0;verticalLabelPosition=bottom;verticalAlign=top;align=center;html=1;fontSize=12;fontStyle=0;aspect=fixed;shape=mxgraph.aws4.resourceIcon;resIcon=mxgraph.aws4.lambda;" vertex="1" parent="QxsduxK5l0AQasDu5CAV-3">
          <mxGeometry x="220" y="195" width="78" height="78" as="geometry" />
        </mxCell>
        <mxCell id="QxsduxK5l0AQasDu5CAV-20" value="" style="line;strokeWidth=2;direction=south;html=1;" vertex="1" parent="QxsduxK5l0AQasDu5CAV-3">
          <mxGeometry x="170" y="90" width="10" height="160" as="geometry" />
        </mxCell>
        <mxCell id="-QjtrjUzRDEMRZ5MF8oH-9" value="1" style="rounded=1;whiteSpace=wrap;html=1;fillColor=#007CBD;strokeColor=none;fontColor=#FFFFFF;fontStyle=1;fontSize=22;" parent="QxsduxK5l0AQasDu5CAV-3" vertex="1">
          <mxGeometry x="60" y="246.5000000000001" width="40" height="38" as="geometry" />
        </mxCell>
        <mxCell id="-QjtrjUzRDEMRZ5MF8oH-27" value="2" style="rounded=1;whiteSpace=wrap;html=1;fillColor=#007CBD;strokeColor=none;fontColor=#FFFFFF;fontStyle=1;fontSize=22;" parent="QxsduxK5l0AQasDu5CAV-3" vertex="1">
          <mxGeometry x="298" y="284.5000000000001" width="40" height="38" as="geometry" />
        </mxCell>
        <mxCell id="QxsduxK5l0AQasDu5CAV-22" value="" style="shape=mxgraph.mockup.containers.marginRect;rectMarginTop=10;strokeColor=#666666;strokeWidth=1;dashed=0;rounded=1;arcSize=5;recursiveResize=0;html=1;whiteSpace=wrap;labelPosition=center;verticalLabelPosition=top;align=center;verticalAlign=bottom;" vertex="1" parent="1">
          <mxGeometry x="84.5" y="380" width="150" height="280" as="geometry" />
        </mxCell>
        <mxCell id="QxsduxK5l0AQasDu5CAV-23" value="Frontend" style="shape=rect;strokeColor=none;fillColor=#008cff;strokeWidth=1;dashed=0;rounded=1;arcSize=20;fontColor=#ffffff;fontSize=17;spacing=2;spacingTop=-2;align=left;autosize=1;spacingLeft=4;resizeWidth=0;resizeHeight=0;perimeter=none;html=1;whiteSpace=wrap;" vertex="1" parent="QxsduxK5l0AQasDu5CAV-22">
          <mxGeometry x="5" width="90" height="30" as="geometry" />
        </mxCell>
        <mxCell id="QxsduxK5l0AQasDu5CAV-34" style="edgeStyle=orthogonalEdgeStyle;rounded=0;orthogonalLoop=1;jettySize=auto;html=1;" edge="1" parent="QxsduxK5l0AQasDu5CAV-22" source="QxsduxK5l0AQasDu5CAV-31" target="QxsduxK5l0AQasDu5CAV-32">
          <mxGeometry relative="1" as="geometry" />
        </mxCell>
        <mxCell id="QxsduxK5l0AQasDu5CAV-31" value="S3 Bucket" style="sketch=0;points=[[0,0,0],[0.25,0,0],[0.5,0,0],[0.75,0,0],[1,0,0],[0,1,0],[0.25,1,0],[0.5,1,0],[0.75,1,0],[1,1,0],[0,0.25,0],[0,0.5,0],[0,0.75,0],[1,0.25,0],[1,0.5,0],[1,0.75,0]];outlineConnect=0;fontColor=#232F3E;fillColor=#7AA116;strokeColor=#ffffff;dashed=0;verticalLabelPosition=top;verticalAlign=bottom;align=center;html=1;fontSize=12;fontStyle=0;aspect=fixed;shape=mxgraph.aws4.resourceIcon;resIcon=mxgraph.aws4.s3;labelPosition=center;" vertex="1" parent="QxsduxK5l0AQasDu5CAV-22">
          <mxGeometry x="30" y="57" width="78" height="78" as="geometry" />
        </mxCell>
        <mxCell id="QxsduxK5l0AQasDu5CAV-32" value="" style="dashed=0;outlineConnect=0;html=1;align=center;labelPosition=center;verticalLabelPosition=bottom;verticalAlign=top;shape=mxgraph.weblogos.html5" vertex="1" parent="QxsduxK5l0AQasDu5CAV-22">
          <mxGeometry x="42.8" y="180" width="52.400000000000006" height="74" as="geometry" />
        </mxCell>
        <mxCell id="QxsduxK5l0AQasDu5CAV-53" value="" style="shape=mxgraph.mockup.containers.marginRect;rectMarginTop=10;strokeColor=#666666;strokeWidth=1;dashed=0;rounded=1;arcSize=5;recursiveResize=0;html=1;whiteSpace=wrap;labelPosition=center;verticalLabelPosition=top;align=center;verticalAlign=bottom;" vertex="1" parent="1">
          <mxGeometry x="614.5" y="760" width="270" height="170" as="geometry" />
        </mxCell>
        <mxCell id="QxsduxK5l0AQasDu5CAV-54" value="Events/Jobs DB" style="shape=rect;strokeColor=none;fillColor=#008cff;strokeWidth=1;dashed=0;rounded=1;arcSize=20;fontColor=#ffffff;fontSize=17;spacing=2;spacingTop=-2;align=left;autosize=1;spacingLeft=4;resizeWidth=0;resizeHeight=0;perimeter=none;html=1;whiteSpace=wrap;" vertex="1" parent="QxsduxK5l0AQasDu5CAV-53">
          <mxGeometry x="5" width="150" height="30" as="geometry" />
        </mxCell>
        <mxCell id="QxsduxK5l0AQasDu5CAV-41" value="DynamoDB" style="sketch=0;points=[[0,0,0],[0.25,0,0],[0.5,0,0],[0.75,0,0],[1,0,0],[0,1,0],[0.25,1,0],[0.5,1,0],[0.75,1,0],[1,1,0],[0,0.25,0],[0,0.5,0],[0,0.75,0],[1,0.25,0],[1,0.5,0],[1,0.75,0]];outlineConnect=0;fontColor=#232F3E;fillColor=#C925D1;strokeColor=#ffffff;dashed=0;verticalLabelPosition=bottom;verticalAlign=top;align=center;html=1;fontSize=12;fontStyle=0;aspect=fixed;shape=mxgraph.aws4.resourceIcon;resIcon=mxgraph.aws4.dynamodb;" vertex="1" parent="QxsduxK5l0AQasDu5CAV-53">
          <mxGeometry x="171" y="62" width="78" height="78" as="geometry" />
        </mxCell>
        <mxCell id="QxsduxK5l0AQasDu5CAV-42" value="RDS" style="sketch=0;points=[[0,0,0],[0.25,0,0],[0.5,0,0],[0.75,0,0],[1,0,0],[0,1,0],[0.25,1,0],[0.5,1,0],[0.75,1,0],[1,1,0],[0,0.25,0],[0,0.5,0],[0,0.75,0],[1,0.25,0],[1,0.5,0],[1,0.75,0]];outlineConnect=0;fontColor=#232F3E;fillColor=#C925D1;strokeColor=#ffffff;dashed=0;verticalLabelPosition=bottom;verticalAlign=top;align=center;html=1;fontSize=12;fontStyle=0;aspect=fixed;shape=mxgraph.aws4.resourceIcon;resIcon=mxgraph.aws4.rds;" vertex="1" parent="QxsduxK5l0AQasDu5CAV-53">
          <mxGeometry x="21" y="62" width="78" height="78" as="geometry" />
        </mxCell>
        <mxCell id="QxsduxK5l0AQasDu5CAV-52" value="" style="line;strokeWidth=2;direction=south;html=1;" vertex="1" parent="QxsduxK5l0AQasDu5CAV-53">
          <mxGeometry x="131" y="51" width="10" height="100" as="geometry" />
        </mxCell>
        <mxCell id="-QjtrjUzRDEMRZ5MF8oH-28" value="3" style="rounded=1;whiteSpace=wrap;html=1;fillColor=#007CBD;strokeColor=none;fontColor=#FFFFFF;fontStyle=1;fontSize=22;" parent="QxsduxK5l0AQasDu5CAV-53" vertex="1">
          <mxGeometry x="220" y="13" width="40" height="38" as="geometry" />
        </mxCell>
        <mxCell id="QxsduxK5l0AQasDu5CAV-90" style="edgeStyle=orthogonalEdgeStyle;rounded=0;orthogonalLoop=1;jettySize=auto;html=1;" edge="1" parent="1" source="QxsduxK5l0AQasDu5CAV-58" target="QxsduxK5l0AQasDu5CAV-89">
          <mxGeometry relative="1" as="geometry" />
        </mxCell>
        <mxCell id="QxsduxK5l0AQasDu5CAV-58" value="" style="shape=mxgraph.mockup.containers.marginRect;rectMarginTop=10;strokeColor=#666666;strokeWidth=1;dashed=0;rounded=1;arcSize=5;recursiveResize=0;html=1;whiteSpace=wrap;" vertex="1" parent="1">
          <mxGeometry x="790" y="354.5" width="350" height="335.5" as="geometry" />
        </mxCell>
        <mxCell id="QxsduxK5l0AQasDu5CAV-59" value="Jobs Queue" style="shape=rect;strokeColor=none;fillColor=#008cff;strokeWidth=1;dashed=0;rounded=1;arcSize=20;fontColor=#ffffff;fontSize=17;spacing=2;spacingTop=-2;align=left;autosize=1;spacingLeft=4;resizeWidth=0;resizeHeight=0;perimeter=none;html=1;whiteSpace=wrap;" vertex="1" parent="QxsduxK5l0AQasDu5CAV-58">
          <mxGeometry x="5" width="120" height="30" as="geometry" />
        </mxCell>
        <mxCell id="QxsduxK5l0AQasDu5CAV-60" value="ECS" style="sketch=0;points=[[0,0,0],[0.25,0,0],[0.5,0,0],[0.75,0,0],[1,0,0],[0,1,0],[0.25,1,0],[0.5,1,0],[0.75,1,0],[1,1,0],[0,0.25,0],[0,0.5,0],[0,0.75,0],[1,0.25,0],[1,0.5,0],[1,0.75,0]];outlineConnect=0;fontColor=#232F3E;fillColor=#ED7100;strokeColor=#ffffff;dashed=0;verticalLabelPosition=bottom;verticalAlign=top;align=center;html=1;fontSize=12;fontStyle=0;aspect=fixed;shape=mxgraph.aws4.resourceIcon;resIcon=mxgraph.aws4.ecs;" vertex="1" parent="QxsduxK5l0AQasDu5CAV-58">
          <mxGeometry x="46.5" y="226" width="78" height="78" as="geometry" />
        </mxCell>
        <mxCell id="QxsduxK5l0AQasDu5CAV-63" value="Lambda" style="sketch=0;points=[[0,0,0],[0.25,0,0],[0.5,0,0],[0.75,0,0],[1,0,0],[0,1,0],[0.25,1,0],[0.5,1,0],[0.75,1,0],[1,1,0],[0,0.25,0],[0,0.5,0],[0,0.75,0],[1,0.25,0],[1,0.5,0],[1,0.75,0]];outlineConnect=0;fontColor=#232F3E;fillColor=#ED7100;strokeColor=#ffffff;dashed=0;verticalLabelPosition=bottom;verticalAlign=top;align=center;html=1;fontSize=12;fontStyle=0;aspect=fixed;shape=mxgraph.aws4.resourceIcon;resIcon=mxgraph.aws4.lambda;" vertex="1" parent="QxsduxK5l0AQasDu5CAV-58">
          <mxGeometry x="225.5" y="226" width="78" height="78" as="geometry" />
        </mxCell>
        <mxCell id="QxsduxK5l0AQasDu5CAV-64" value="" style="line;strokeWidth=2;direction=south;html=1;" vertex="1" parent="QxsduxK5l0AQasDu5CAV-58">
          <mxGeometry x="175.5" y="210" width="10" height="110" as="geometry" />
        </mxCell>
        <mxCell id="-QjtrjUzRDEMRZ5MF8oH-29" value="4" style="rounded=1;whiteSpace=wrap;html=1;fillColor=#007CBD;strokeColor=none;fontColor=#FFFFFF;fontStyle=1;fontSize=22;" parent="QxsduxK5l0AQasDu5CAV-58" vertex="1">
          <mxGeometry x="305.5" y="14.500000000000114" width="40" height="38" as="geometry" />
        </mxCell>
        <mxCell id="QxsduxK5l0AQasDu5CAV-73" value="SQS Job Queue" style="sketch=0;points=[[0,0,0],[0.25,0,0],[0.5,0,0],[0.75,0,0],[1,0,0],[0,1,0],[0.25,1,0],[0.5,1,0],[0.75,1,0],[1,1,0],[0,0.25,0],[0,0.5,0],[0,0.75,0],[1,0.25,0],[1,0.5,0],[1,0.75,0]];outlineConnect=0;fontColor=#232F3E;fillColor=#E7157B;strokeColor=#ffffff;dashed=0;verticalLabelPosition=top;verticalAlign=bottom;align=center;html=1;fontSize=12;fontStyle=0;aspect=fixed;shape=mxgraph.aws4.resourceIcon;resIcon=mxgraph.aws4.sqs;labelPosition=center;" vertex="1" parent="QxsduxK5l0AQasDu5CAV-58">
          <mxGeometry x="141.5" y="50" width="78" height="78" as="geometry" />
        </mxCell>
        <mxCell id="QxsduxK5l0AQasDu5CAV-87" value="" style="verticalLabelPosition=bottom;shadow=0;dashed=0;align=center;html=1;verticalAlign=top;strokeWidth=1;shape=mxgraph.mockup.markup.curlyBrace;whiteSpace=wrap;strokeColor=#999999;" vertex="1" parent="QxsduxK5l0AQasDu5CAV-58">
          <mxGeometry x="48.75" y="180" width="263.5" height="20" as="geometry" />
        </mxCell>
        <mxCell id="QxsduxK5l0AQasDu5CAV-88" style="edgeStyle=orthogonalEdgeStyle;rounded=0;orthogonalLoop=1;jettySize=auto;html=1;entryX=0.501;entryY=0.15;entryDx=0;entryDy=0;entryPerimeter=0;" edge="1" parent="QxsduxK5l0AQasDu5CAV-58" source="QxsduxK5l0AQasDu5CAV-73" target="QxsduxK5l0AQasDu5CAV-87">
          <mxGeometry relative="1" as="geometry" />
        </mxCell>
        <mxCell id="QxsduxK5l0AQasDu5CAV-67" value="" style="endArrow=classic;startArrow=classic;html=1;rounded=0;entryX=0.002;entryY=0.493;entryDx=0;entryDy=0;entryPerimeter=0;" edge="1" parent="1" source="QxsduxK5l0AQasDu5CAV-3" target="QxsduxK5l0AQasDu5CAV-53">
          <mxGeometry width="50" height="50" relative="1" as="geometry">
            <mxPoint x="974.5" y="620" as="sourcePoint" />
            <mxPoint x="1024.5" y="570" as="targetPoint" />
            <Array as="points">
              <mxPoint x="520" y="844" />
            </Array>
          </mxGeometry>
        </mxCell>
        <mxCell id="QxsduxK5l0AQasDu5CAV-71" value="Create / Retrieve Jobs" style="edgeLabel;html=1;align=center;verticalAlign=middle;resizable=0;points=[];" vertex="1" connectable="0" parent="QxsduxK5l0AQasDu5CAV-67">
          <mxGeometry x="-0.5764" y="-3" relative="1" as="geometry">
            <mxPoint as="offset" />
          </mxGeometry>
        </mxCell>
        <mxCell id="QxsduxK5l0AQasDu5CAV-68" value="" style="endArrow=classic;startArrow=classic;html=1;rounded=0;exitX=1.002;exitY=0.501;exitDx=0;exitDy=0;exitPerimeter=0;entryX=0.52;entryY=1.004;entryDx=0;entryDy=0;entryPerimeter=0;" edge="1" parent="1" source="QxsduxK5l0AQasDu5CAV-53" target="QxsduxK5l0AQasDu5CAV-58">
          <mxGeometry width="50" height="50" relative="1" as="geometry">
            <mxPoint x="974.5" y="620" as="sourcePoint" />
            <mxPoint x="1014.5" y="610" as="targetPoint" />
            <Array as="points">
              <mxPoint x="970" y="845" />
            </Array>
          </mxGeometry>
        </mxCell>
        <mxCell id="QxsduxK5l0AQasDu5CAV-70" value="Update Status&lt;div&gt;(Started / Processing)&lt;/div&gt;" style="edgeLabel;html=1;align=center;verticalAlign=middle;resizable=0;points=[];" vertex="1" connectable="0" parent="QxsduxK5l0AQasDu5CAV-68">
          <mxGeometry x="0.4719" y="-3" relative="1" as="geometry">
            <mxPoint as="offset" />
          </mxGeometry>
        </mxCell>
        <mxCell id="QxsduxK5l0AQasDu5CAV-72" value="" style="endArrow=classic;html=1;rounded=0;exitX=1.006;exitY=0.558;exitDx=0;exitDy=0;exitPerimeter=0;entryX=0.006;entryY=0.553;entryDx=0;entryDy=0;entryPerimeter=0;endFill=1;" edge="1" parent="1" source="QxsduxK5l0AQasDu5CAV-3" target="QxsduxK5l0AQasDu5CAV-58">
          <mxGeometry width="50" height="50" relative="1" as="geometry">
            <mxPoint x="974.5" y="620" as="sourcePoint" />
            <mxPoint x="1024.5" y="570" as="targetPoint" />
          </mxGeometry>
        </mxCell>
        <mxCell id="-QjtrjUzRDEMRZ5MF8oH-30" value="5" style="rounded=1;whiteSpace=wrap;html=1;fillColor=#007CBD;strokeColor=none;fontColor=#FFFFFF;fontStyle=1;fontSize=22;" parent="1" vertex="1">
          <mxGeometry x="900" y="214" width="40" height="38" as="geometry" />
        </mxCell>
        <mxCell id="QxsduxK5l0AQasDu5CAV-89" value="AWS Batch /&lt;div&gt;Other Job Running System&lt;/div&gt;" style="outlineConnect=0;dashed=0;verticalLabelPosition=top;verticalAlign=bottom;align=center;html=1;shape=mxgraph.aws3.batch;fillColor=#F58534;gradientColor=none;labelPosition=center;" vertex="1" parent="1">
          <mxGeometry x="1190" y="475.75" width="76.5" height="93" as="geometry" />
        </mxCell>
        <mxCell id="QxsduxK5l0AQasDu5CAV-91" style="edgeStyle=orthogonalEdgeStyle;rounded=0;orthogonalLoop=1;jettySize=auto;html=1;entryX=0.998;entryY=0.645;entryDx=0;entryDy=0;entryPerimeter=0;exitX=0.5;exitY=1;exitDx=0;exitDy=0;exitPerimeter=0;" edge="1" parent="1" source="QxsduxK5l0AQasDu5CAV-89" target="QxsduxK5l0AQasDu5CAV-53">
          <mxGeometry relative="1" as="geometry">
            <Array as="points">
              <mxPoint x="1228" y="870" />
            </Array>
          </mxGeometry>
        </mxCell>
        <mxCell id="QxsduxK5l0AQasDu5CAV-92" value="Update Status&lt;div&gt;(Complete / Failed)&lt;/div&gt;" style="edgeLabel;html=1;align=center;verticalAlign=middle;resizable=0;points=[];" vertex="1" connectable="0" parent="QxsduxK5l0AQasDu5CAV-91">
          <mxGeometry x="-0.5966" relative="1" as="geometry">
            <mxPoint as="offset" />
          </mxGeometry>
        </mxCell>
        <mxCell id="QxsduxK5l0AQasDu5CAV-98" value="" style="endArrow=none;dashed=1;html=1;rounded=0;endFill=0;startArrow=classic;startFill=1;" edge="1" parent="1">
          <mxGeometry width="50" height="50" relative="1" as="geometry">
            <mxPoint x="1270" y="520" as="sourcePoint" />
            <mxPoint x="530" y="360" as="targetPoint" />
            <Array as="points">
              <mxPoint x="1320" y="520" />
              <mxPoint x="1320" y="260" />
              <mxPoint x="530" y="260" />
            </Array>
          </mxGeometry>
        </mxCell>
        <mxCell id="QxsduxK5l0AQasDu5CAV-109" style="edgeStyle=orthogonalEdgeStyle;rounded=0;orthogonalLoop=1;jettySize=auto;html=1;" edge="1" parent="1" source="QxsduxK5l0AQasDu5CAV-99" target="QxsduxK5l0AQasDu5CAV-22">
          <mxGeometry relative="1" as="geometry" />
        </mxCell>
        <mxCell id="QxsduxK5l0AQasDu5CAV-99" value="" style="shape=mxgraph.mockup.containers.marginRect;rectMarginTop=10;strokeColor=#666666;strokeWidth=1;dashed=0;rounded=1;arcSize=5;recursiveResize=0;html=1;whiteSpace=wrap;labelPosition=center;verticalLabelPosition=top;align=center;verticalAlign=bottom;" vertex="1" parent="1">
          <mxGeometry x="84.5" y="780" width="275.5" height="170" as="geometry" />
        </mxCell>
        <mxCell id="QxsduxK5l0AQasDu5CAV-100" value="Job Logs" style="shape=rect;strokeColor=none;fillColor=#008cff;strokeWidth=1;dashed=0;rounded=1;arcSize=20;fontColor=#ffffff;fontSize=17;spacing=2;spacingTop=-2;align=left;autosize=1;spacingLeft=4;resizeWidth=0;resizeHeight=0;perimeter=none;html=1;whiteSpace=wrap;" vertex="1" parent="QxsduxK5l0AQasDu5CAV-99">
          <mxGeometry x="5" width="90" height="30" as="geometry" />
        </mxCell>
        <mxCell id="QxsduxK5l0AQasDu5CAV-103" value="" style="line;strokeWidth=2;direction=south;html=1;" vertex="1" parent="QxsduxK5l0AQasDu5CAV-99">
          <mxGeometry x="131" y="51" width="10" height="100" as="geometry" />
        </mxCell>
        <mxCell id="QxsduxK5l0AQasDu5CAV-104" value="6" style="rounded=1;whiteSpace=wrap;html=1;fillColor=#007CBD;strokeColor=none;fontColor=#FFFFFF;fontStyle=1;fontSize=22;" vertex="1" parent="QxsduxK5l0AQasDu5CAV-99">
          <mxGeometry x="220" y="13" width="40" height="38" as="geometry" />
        </mxCell>
        <mxCell id="QxsduxK5l0AQasDu5CAV-105" value="S3" style="sketch=0;points=[[0,0,0],[0.25,0,0],[0.5,0,0],[0.75,0,0],[1,0,0],[0,1,0],[0.25,1,0],[0.5,1,0],[0.75,1,0],[1,1,0],[0,0.25,0],[0,0.5,0],[0,0.75,0],[1,0.25,0],[1,0.5,0],[1,0.75,0]];outlineConnect=0;fontColor=#232F3E;fillColor=#7AA116;strokeColor=#ffffff;dashed=0;verticalLabelPosition=bottom;verticalAlign=top;align=center;html=1;fontSize=12;fontStyle=0;aspect=fixed;shape=mxgraph.aws4.resourceIcon;resIcon=mxgraph.aws4.s3;" vertex="1" parent="QxsduxK5l0AQasDu5CAV-99">
          <mxGeometry x="21" y="62" width="78" height="78" as="geometry" />
        </mxCell>
        <mxCell id="QxsduxK5l0AQasDu5CAV-106" value="CloudWatch / Grafana" style="sketch=0;points=[[0,0,0],[0.25,0,0],[0.5,0,0],[0.75,0,0],[1,0,0],[0,1,0],[0.25,1,0],[0.5,1,0],[0.75,1,0],[1,1,0],[0,0.25,0],[0,0.5,0],[0,0.75,0],[1,0.25,0],[1,0.5,0],[1,0.75,0]];points=[[0,0,0],[0.25,0,0],[0.5,0,0],[0.75,0,0],[1,0,0],[0,1,0],[0.25,1,0],[0.5,1,0],[0.75,1,0],[1,1,0],[0,0.25,0],[0,0.5,0],[0,0.75,0],[1,0.25,0],[1,0.5,0],[1,0.75,0]];outlineConnect=0;fontColor=#232F3E;fillColor=#E7157B;strokeColor=#ffffff;dashed=0;verticalLabelPosition=bottom;verticalAlign=top;align=center;html=1;fontSize=12;fontStyle=0;aspect=fixed;shape=mxgraph.aws4.resourceIcon;resIcon=mxgraph.aws4.cloudwatch_2;" vertex="1" parent="QxsduxK5l0AQasDu5CAV-99">
          <mxGeometry x="171" y="62" width="78" height="78" as="geometry" />
        </mxCell>
        <mxCell id="QxsduxK5l0AQasDu5CAV-110" value="CDA /&lt;div&gt;Auth Middleware&lt;/div&gt;" style="aspect=fixed;sketch=0;html=1;dashed=0;whitespace=wrap;verticalLabelPosition=bottom;verticalAlign=top;fillColor=#2875E2;strokeColor=#ffffff;points=[[0.005,0.63,0],[0.1,0.2,0],[0.9,0.2,0],[0.5,0,0],[0.995,0.63,0],[0.72,0.99,0],[0.5,1,0],[0.28,0.99,0]];shape=mxgraph.kubernetes.icon2;kubernetesLabel=1;prIcon=api" vertex="1" parent="1">
          <mxGeometry x="310" y="212.5" width="50" height="48" as="geometry" />
        </mxCell>
        <mxCell id="QxsduxK5l0AQasDu5CAV-111" style="edgeStyle=orthogonalEdgeStyle;rounded=0;orthogonalLoop=1;jettySize=auto;html=1;entryX=0.995;entryY=0.63;entryDx=0;entryDy=0;entryPerimeter=0;startArrow=classic;startFill=1;exitX=0.465;exitY=0.025;exitDx=0;exitDy=0;exitPerimeter=0;" edge="1" parent="1" source="QxsduxK5l0AQasDu5CAV-3" target="QxsduxK5l0AQasDu5CAV-110">
          <mxGeometry relative="1" as="geometry" />
        </mxCell>
        <mxCell id="QxsduxK5l0AQasDu5CAV-112" value="Authentication /&lt;div&gt;Authorization&lt;/div&gt;" style="edgeLabel;html=1;align=center;verticalAlign=middle;resizable=0;points=[];" vertex="1" connectable="0" parent="QxsduxK5l0AQasDu5CAV-111">
          <mxGeometry x="0.4239" y="-3" relative="1" as="geometry">
            <mxPoint as="offset" />
          </mxGeometry>
        </mxCell>
        <mxCell id="QxsduxK5l0AQasDu5CAV-113" style="edgeStyle=orthogonalEdgeStyle;rounded=0;orthogonalLoop=1;jettySize=auto;html=1;entryX=0.644;entryY=1.002;entryDx=0;entryDy=0;entryPerimeter=0;" edge="1" parent="1" source="QxsduxK5l0AQasDu5CAV-89" target="QxsduxK5l0AQasDu5CAV-99">
          <mxGeometry relative="1" as="geometry">
            <Array as="points">
              <mxPoint x="1310" y="550" />
              <mxPoint x="1310" y="970" />
              <mxPoint x="262" y="970" />
            </Array>
          </mxGeometry>
        </mxCell>
        <mxCell id="QxsduxK5l0AQasDu5CAV-114" value="7" style="rounded=1;whiteSpace=wrap;html=1;fillColor=#007CBD;strokeColor=none;fontColor=#FFFFFF;fontStyle=1;fontSize=22;" vertex="1" parent="1">
          <mxGeometry x="1240" y="730" width="40" height="38" as="geometry" />
        </mxCell>
        <mxCell id="QxsduxK5l0AQasDu5CAV-115" value="7" style="rounded=1;whiteSpace=wrap;html=1;fillColor=#007CBD;strokeColor=none;fontColor=#FFFFFF;fontStyle=1;fontSize=22;labelBackgroundColor=none;" vertex="1" parent="1">
          <mxGeometry x="1406.5" y="827" width="40" height="38" as="geometry" />
        </mxCell>
        <mxCell id="QxsduxK5l0AQasDu5CAV-116" value="&lt;span&gt;Might take some thought to figure out what exactly will update the DB with completion status without directly coupling jobs to the event management system.&amp;nbsp; Possibly EventBridge?&lt;/span&gt;" style="text;html=1;align=left;verticalAlign=top;spacingTop=-4;fontSize=14;labelBackgroundColor=none;whiteSpace=wrap;" vertex="1" parent="1">
          <mxGeometry x="1457" y="828.5" width="450" height="61.5" as="geometry" />
        </mxCell>
      </root>
    </mxGraphModel>
  </diagram>
</mxfile>
